<svg xmlns="http://www.w3.org/2000/svg" width="28.735" height="28.766" viewBox="0 0 28.735 28.766"><path d="M243.957,274.268a14.283,14.283,0,0,1,12.421,7.1,13.956,13.956,0,0,1,1.955,7.261,14.385,14.385,0,0,1-1.955,7.261,14.2,14.2,0,0,1-5.159,5.159A14.388,14.388,0,0,1,243.957,303a13.954,13.954,0,0,1-7.262-1.955,14.391,14.391,0,0,1,7.262-26.811ZM233.442,292.5a11.246,11.246,0,0,0,1.972,3.351,18.513,18.513,0,0,1,3.089-3.614,17.494,17.494,0,0,1,6.309-3.746q-.3-.69-.657-1.479a33.87,33.87,0,0,1-10.186,1.479q-.658,0-1.216-.033v.164A10.948,10.948,0,0,0,233.442,292.5Zm1.791-10.925a10.921,10.921,0,0,0-2.152,4.321l1.051.033a30.205,30.205,0,0,0,3.943-.263,28.058,28.058,0,0,0,4.929-.986A32.849,32.849,0,0,0,239,278.572,11.122,11.122,0,0,0,235.233,281.579Zm12.7,17.529a56.5,56.5,0,0,0-2.2-8.214,15.044,15.044,0,0,0-5.849,3.549,16.067,16.067,0,0,0-2.6,3.187,11.667,11.667,0,0,0,3.138,1.626,10.891,10.891,0,0,0,3.532.575A11.291,11.291,0,0,0,247.933,299.108Zm-6.375-21.423a36.947,36.947,0,0,1,3.877,6.144,14.647,14.647,0,0,0,5.52-3.943,11.283,11.283,0,0,0-3.269-1.824,10.991,10.991,0,0,0-3.729-.641A11.347,11.347,0,0,0,241.558,277.685Zm4.994,8.444q.426.954.756,1.741a17.968,17.968,0,0,1,3.253-.3,21.474,21.474,0,0,1,4.6.526,11.481,11.481,0,0,0-.706-3.4,11.18,11.18,0,0,0-1.692-3.006A17.689,17.689,0,0,1,246.553,286.129Zm6.785,8.625a10.661,10.661,0,0,0,1.626-4.091,20.1,20.1,0,0,0-4.4-.526h-.033a16.267,16.267,0,0,0-2.3.164,56.418,56.418,0,0,1,2.07,7.557A11.394,11.394,0,0,0,253.338,294.754Z" transform="translate(-229.598 -274.235)" fill="#03111a"/></svg>