<svg xmlns="http://www.w3.org/2000/svg" width="35.33" height="27.744" viewBox="0 0 35.33 27.744"><path d="M90.479,569.421v-5.993c0-.232.026-.375.081-.428a1.8,1.8,0,0,1,.567-.206l.365-.063v6.69H92.95V562.6h.932v6.818h1.459v-6.849H114.5a8.051,8.051,0,0,1,3.383.713A6.686,6.686,0,0,1,120.4,565.2a4.332,4.332,0,0,1,.993,2.6q.04.793.04,1.9-.041,2.347-.04,1.933H110.534a.8.8,0,0,1-.567-.19,10.33,10.33,0,0,0-4.011-1.712,11.1,11.1,0,0,0-4.457.017,10.487,10.487,0,0,0-4.011,1.728.656.656,0,0,1-.405.159H86.346l-.2-.032v-1.2q-.041.379-.041-1.459a11.051,11.051,0,0,1,.081-1.459,4.983,4.983,0,0,1,2.715-3.837l.162-.031v5.8h1.418Zm20.663,3.075h10.251v12.46a4.384,4.384,0,0,1-.932,2.7,6.337,6.337,0,0,1-2.512,1.95,8.272,8.272,0,0,1-3.444.713H93.031a7.816,7.816,0,0,1-3.444-.7,6.622,6.622,0,0,1-2.532-1.965,4.322,4.322,0,0,1-.952-2.7V572.527H96.354a5.743,5.743,0,0,0-1.134,6.4,7.371,7.371,0,0,0,3.606,3.55,10.145,10.145,0,0,0,3.667,1.095,11.592,11.592,0,0,0,3.869-.239,9.748,9.748,0,0,0,3.4-1.49,7,7,0,0,0,2.269-2.537,5.773,5.773,0,0,0,.689-3.3A6.683,6.683,0,0,0,111.142,572.5Zm-7.374,9.512a8.648,8.648,0,0,1-3.525-.713,6.223,6.223,0,0,1-2.552-1.965,4.454,4.454,0,0,1,0-5.453,6.466,6.466,0,0,1,2.552-2,8.3,8.3,0,0,1,3.5-.744,8.165,8.165,0,0,1,3.484.744,6.506,6.506,0,0,1,2.532,2,4.454,4.454,0,0,1,0,5.453,6.243,6.243,0,0,1-2.532,1.965A8.4,8.4,0,0,1,103.768,582.008Zm5.105-5.421a3.335,3.335,0,0,0-.689-2.013,4.7,4.7,0,0,0-1.864-1.474,6.411,6.411,0,0,0-5.146,0,4.752,4.752,0,0,0-1.864,1.459,3.287,3.287,0,0,0,0,4.027,4.848,4.848,0,0,0,1.864,1.474,5.944,5.944,0,0,0,2.573.555,6.089,6.089,0,0,0,2.573-.54,4.736,4.736,0,0,0,1.864-1.458A3.306,3.306,0,0,0,108.873,576.587Zm9.319-9.354v-1.459a.78.78,0,0,0-.3-.649,1.245,1.245,0,0,0-.79-.238q-1.864-.031-3.768,0a1.175,1.175,0,0,0-.81.253.851.851,0,0,0-.284.666v2.918a.777.777,0,0,0,.3.649,1.246,1.246,0,0,0,.79.239h3.727a1.316,1.316,0,0,0,.831-.239.779.779,0,0,0,.3-.649Z" transform="translate(-86.103 -562.572)" fill="#03111a"/></svg>