<svg xmlns="http://www.w3.org/2000/svg" width="26.486" height="26.638" viewBox="0 0 26.486 26.638"><path d="M110.856,633.073a1.934,1.934,0,0,1,1.4.563,1.826,1.826,0,0,1,.578,1.355v22.833a1.774,1.774,0,0,1-.578,1.339,1.926,1.926,0,0,1-1.37.549H88.3a1.92,1.92,0,0,1-1.37-.549,1.771,1.771,0,0,1-.578-1.339V634.99a1.824,1.824,0,0,1,.578-1.355,1.934,1.934,0,0,1,1.4-.562h22.528Zm-16.835,8.052a2.132,2.132,0,0,0,0-2.984,2.213,2.213,0,0,0-1.614-.593,2.268,2.268,0,0,0-1.629.593,1.973,1.973,0,0,0-.624,1.492,1.994,1.994,0,0,0,.609,1.492,2.168,2.168,0,0,0,1.583.594h.03A2.247,2.247,0,0,0,94.021,641.125Zm.365,2.238H90.4v12.025h3.988Zm14.4,5.115a5.833,5.833,0,0,0-1.309-4.079,4.728,4.728,0,0,0-5.693-.64,4.713,4.713,0,0,0-1.187,1.31v-1.7H96.608q.03.7,0,6.423v5.6H100.6V648.66a2.988,2.988,0,0,1,.122-.974,2.425,2.425,0,0,1,.731-1,2.022,2.022,0,0,1,1.34-.457,1.755,1.755,0,0,1,1.553.761,3.551,3.551,0,0,1,.457,1.949v6.453h3.988Z" transform="translate(-86.349 -633.073)" fill="#03111a"/></svg>