<svg xmlns="http://www.w3.org/2000/svg" width="34.178" height="27.744" viewBox="0 0 34.178 27.744"><path d="M260.9,1147.8v.9a20.282,20.282,0,0,1-1.288,7.023,20.942,20.942,0,0,1-3.824,6.4,18.968,18.968,0,0,1-6.243,4.683,20.362,20.362,0,0,1-8.544,1.795,19.993,19.993,0,0,1-5.7-.819,19.367,19.367,0,0,1-5.072-2.3q.819.079,1.678.078a13.927,13.927,0,0,0,4.643-.781,14.53,14.53,0,0,0,4.058-2.185,7,7,0,0,1-4.058-1.424,6.759,6.759,0,0,1-2.458-3.453,6.976,6.976,0,0,0,1.288.117,7.246,7.246,0,0,0,1.834-.234,6.77,6.77,0,0,1-2.848-1.308,6.952,6.952,0,0,1-2.009-2.459,7.3,7.3,0,0,1-.761-3.1v-.117a6.574,6.574,0,0,0,3.2.9,7.057,7.057,0,0,1-2.282-2.517,6.856,6.856,0,0,1-.839-3.336,6.97,6.97,0,0,1,.936-3.512,20.007,20.007,0,0,0,14.436,7.335,8.12,8.12,0,0,1-.156-1.6,6.826,6.826,0,0,1,.936-3.511,7.065,7.065,0,0,1,2.556-2.556,6.748,6.748,0,0,1,3.492-.956,6.946,6.946,0,0,1,5.111,2.225,13.62,13.62,0,0,0,4.448-1.717,6.781,6.781,0,0,1-1.19,2.244,7.2,7.2,0,0,1-1.892,1.658,14.246,14.246,0,0,0,4.058-1.131A14.664,14.664,0,0,1,260.9,1147.8Z" transform="translate(-230.23 -1140.849)" fill="#03111a"/></svg>